<svg xmlns="http://www.w3.org/2000/svg" width="18" height="58" viewBox="0 0 18 58">
  <g
     fill="none"
     fill-rule="evenodd"
     opacity="0.99"
     id="g12">
    <g
       fill="#888888"
       id="g10" />
  </g>
  <g
     id="g902"
     transform="translate(0,20)">
    <path
       style="fill:#898787;fill-opacity:1;stroke:none;stroke-width:0;stroke-miterlimit:4;stroke-dasharray:none;stroke-opacity:1"
       d="M 7.8653996,13.702704 C 7.0676114,13.515415 5.9915173,12.859387 5.3742616,12.184011 4.347096,11.060128 3.9433924,9.4611797 4.3391704,8.0843287 c 0.5306786,-1.84615 1.9525201,-3.097779 3.9386402,-3.467137 2.0722994,-0.3853845 4.3784074,0.827092 5.2957704,2.784343 0.27646,0.589844 0.3241,0.851844 0.3241,1.782404 0,0.9880423 -0.03734,1.1667593 -0.39594,1.8951843 -1.010603,2.052828 -3.37651,3.1541 -5.6363414,2.623581 z"
       id="path26" />
    <path
       style="fill:#898787;fill-opacity:1;stroke:none;stroke-width:0;stroke-miterlimit:4;stroke-dasharray:none;stroke-opacity:1"
       d="m 7.8653996,-6.297296 c -0.797788,-0.187289 -1.873882,-0.843317 -2.491138,-1.518693 -1.027165,-1.123883 -1.430869,-2.722832 -1.035091,-4.099683 0.530679,-1.84615 1.95252,-3.097779 3.93864,-3.467136 2.0723004,-0.385385 4.3784084,0.827092 5.2957714,2.784342 0.27646,0.589844 0.3241,0.851844 0.3241,1.782404 0,0.988043 -0.03734,1.16676 -0.39594,1.895185 -1.010603,2.052828 -3.37651,3.1541 -5.6363424,2.623581 z"
       id="path26-0" />
    <path
       style="fill:#898787;fill-opacity:1;stroke:none;stroke-width:0;stroke-miterlimit:4;stroke-dasharray:none;stroke-opacity:1"
       d="M 7.8653996,33.702704 C 7.0676118,33.515415 5.9915177,32.859387 5.374262,32.184011 4.3470964,31.060128 3.9433928,29.46118 4.3391708,28.084329 c 0.5306786,-1.846151 1.9525201,-3.09778 3.9386398,-3.467138 2.0723004,-0.385384 4.3784084,0.827092 5.2957714,2.784344 0.27646,0.589844 0.3241,0.851844 0.3241,1.782404 0,0.988042 -0.03734,1.166759 -0.39594,1.895184 -1.010603,2.052828 -3.37651,3.1541 -5.6363424,2.623581 z"
       id="path26-8" />
  </g>
</svg>
